<?xml version="1.0" encoding="UTF-8" standalone="no"?>
<!-- Created with Inkscape (http://www.inkscape.org/) -->

<svg
   width="145.07874mm"
   height="127.03367mm"
   viewBox="0 0 145.07874 127.03366"
   version="1.1"
   id="svg2176"
   inkscape:version="1.1 (ce6663b3b7, 2021-05-25)"
   sodipodi:docname="good_trank_plot.svg"
   xmlns:inkscape="http://www.inkscape.org/namespaces/inkscape"
   xmlns:sodipodi="http://sodipodi.sourceforge.net/DTD/sodipodi-0.dtd"
   xmlns="http://www.w3.org/2000/svg"
   xmlns:svg="http://www.w3.org/2000/svg">
  <sodipodi:namedview
     id="namedview2178"
     pagecolor="#ffffff"
     bordercolor="#666666"
     borderopacity="1.0"
     inkscape:pageshadow="2"
     inkscape:pageopacity="0.0"
     inkscape:pagecheckerboard="0"
     inkscape:document-units="mm"
     showgrid="false"
     fit-margin-top="10"
     fit-margin-left="10"
     fit-margin-right="10"
     fit-margin-bottom="10"
     inkscape:zoom="1.6017536"
     inkscape:cx="275.01108"
     inkscape:cy="-231.62114"
     inkscape:window-width="1440"
     inkscape:window-height="2523"
     inkscape:window-x="1440"
     inkscape:window-y="0"
     inkscape:window-maximized="1"
     inkscape:current-layer="layer1" />
  <defs
     id="defs2173" />
  <g
     inkscape:label="Layer 1"
     inkscape:groupmode="layer"
     id="layer1"
     transform="translate(-65.441024,-273.49254)">
    <path
       style="vector-effect:none;fill:none;fill-opacity:1;stroke:#000000;stroke-width:0.499999;stroke-linecap:round;stroke-linejoin:round;stroke-miterlimit:4;stroke-dasharray:none;stroke-dashoffset:0;stroke-opacity:1;paint-order:normal"
       d="m 75.793834,283.95011 v 48.1174 H 197.84542"
       id="path64311" />
    <text
       xml:space="preserve"
       style="font-size:4.23333px;line-height:1.25;font-family:'Ubuntu Mono';-inkscape-font-specification:'Ubuntu Mono';text-decoration:none;text-decoration-line:none;text-decoration-color:#000000;letter-spacing:0px;word-spacing:0px;fill:#000000;stroke-width:0.264583"
       x="173.29768"
       y="286.42627"
       id="text64335"><tspan
         sodipodi:role="line"
         id="tspan64333"
         style="stroke-width:0.264583"
         x="173.29768"
         y="286.42627">n_eff = 5000</tspan></text>
    <text
       xml:space="preserve"
       style="font-size:4.23333px;line-height:1.25;font-family:'Ubuntu Mono';-inkscape-font-specification:'Ubuntu Mono';text-decoration:none;text-decoration-line:none;text-decoration-color:#000000;letter-spacing:0px;word-spacing:0px;fill:#000000;stroke-width:0.264583"
       x="77.910477"
       y="286.06641"
       id="text64339"><tspan
         sodipodi:role="line"
         id="tspan64337"
         style="stroke-width:0.264583"
         x="77.910477"
         y="286.06641">parameter_name</tspan></text>
    <path
       style="vector-effect:none;fill:none;fill-opacity:1;stroke:#000000;stroke-width:0.499999;stroke-linecap:round;stroke-linejoin:round;stroke-miterlimit:4;stroke-dasharray:none;stroke-dashoffset:0;stroke-opacity:1;paint-order:normal"
       d="m 75.793834,342.15881 v 48.1174 H 197.84542"
       id="path64341" />
    <text
       xml:space="preserve"
       style="font-size:4.23333px;line-height:1.25;font-family:'Ubuntu Mono';-inkscape-font-specification:'Ubuntu Mono';text-decoration:none;text-decoration-line:none;text-decoration-color:#000000;letter-spacing:0px;word-spacing:0px;fill:#000000;stroke-width:0.264583"
       x="179.11861"
       y="344.63416"
       id="text64345"><tspan
         sodipodi:role="line"
         id="tspan64343"
         style="stroke-width:0.264583"
         x="179.11861"
         y="344.63416">n_eff = 5</tspan></text>
    <text
       xml:space="preserve"
       style="font-size:4.23333px;line-height:1.25;font-family:'Ubuntu Mono';-inkscape-font-specification:'Ubuntu Mono';text-decoration:none;text-decoration-line:none;text-decoration-color:#000000;letter-spacing:0px;word-spacing:0px;fill:#000000;stroke-width:0.264583"
       x="77.910477"
       y="344.27429"
       id="text64349"><tspan
         sodipodi:role="line"
         id="tspan64347"
         style="stroke-width:0.264583"
         x="77.910477"
         y="344.27429">parameter_name</tspan></text>
    <path
       style="font-variation-settings:normal;vector-effect:none;fill:#000000;fill-opacity:1;stroke:none;stroke-width:0.499999;stroke-linecap:round;stroke-linejoin:round;stroke-miterlimit:4;stroke-dasharray:none;stroke-dashoffset:0;stroke-opacity:1;-inkscape-stroke:none;stop-color:#000000"
       id="path67360"
       d="m 78.279074,307.01121 c 1.0354,-0.6152 2.07743,-1.5244 3.33411,-1.6551 0.6419,-0.067 1.30533,0.2647 1.88902,0.4741 0.20407,0.077 0.40997,0.1497 0.61223,0.2315 0.48128,0.1947 0.64633,0.2774 1.10294,0.5333 0.25902,0.1452 0.93875,0.5638 1.2154,0.686 0.22646,0.1001 0.46683,0.1651 0.70024,0.2476 0.23574,0.036 0.46918,0.093 0.70721,0.1078 1.03705,0.063 2.29613,-0.1739 3.33449,-0.3319 1.44757,-0.1249 2.81563,-0.6253 4.2217,-0.9481 1.63535,-0.2471 3.21114,0.1764 4.722386,0.7655 1.11898,0.4871 2.11456,1.2432 3.34639,1.4352 0.88243,0.1376 1.09899,0.027 1.98798,-0.1172 1.45423,-0.3948 2.7405,-1.2016 4.12351,-1.7734 0.74701,-0.3088 0.90405,-0.328 1.66826,-0.5397 1.78352,-0.3262 3.53675,-0.7905 5.34109,-0.9874 0.88155,-0.067 1.76339,0.01 2.64369,0.048 0.65974,0.032 0.93129,0.022 1.59142,0.1311 0.26499,0.044 0.52521,0.1126 0.78782,0.1689 0.303,0.085 0.60542,0.1725 0.90899,0.2557 0.83446,0.2286 1.12922,0.3329 2.01952,0.4087 1.21708,0.1037 2.44683,0.016 3.66313,-0.045 1.47725,-0.055 2.9619,-0.1048 4.4356,0.046 0.69886,0.072 1.39277,0.1853 2.0892,0.2776 1.0268,0.1163 2.07007,0.1401 3.08167,-0.1089 0.88349,-0.2174 1.6892,-0.6442 2.51126,-1.0184 0.56645,-0.1708 1.23747,-0.3502 1.77383,0.038 0.56995,0.4128 0.71883,0.8024 1.08389,1.3813 0.21029,0.3334 0.42477,0.6642 0.63715,0.9963 0.36358,0.4933 0.70851,1.068 1.25641,1.3956 0.51559,0.3081 1.6251,-0.4049 2.05639,-0.6437 0.86027,-0.4877 1.77416,-0.8765 2.78542,-0.7882 0.77502,0.068 0.96167,0.2188 1.70383,0.5272 1.10146,0.5851 2.21324,1.2172 3.46765,1.3959 0.60317,0.086 0.90664,0.035 1.51611,0 1.04373,-0.057 2.04079,-0.3883 3.06544,-0.5575 0.54252,-0.09 0.88081,-0.1111 1.42427,-0.1609 2.09944,-0.07 3.97762,-0.9718 5.84093,-1.8481 0.90553,-0.403 1.80839,-0.89 2.80748,-1.0206 0.22948,-0.03 0.46367,-0.032 0.69419,-0.011 0.14423,0.013 0.56296,0.1353 0.4208,0.1077 0.20461,0.3948 0.22068,0.853 0.42693,1.2473 0.29092,0.5561 0.79102,0.934 1.31601,1.2473 0.6232,0.3105 1.2441,0.1638 1.89738,0.1021 0.55066,-0.052 0.68016,-0.044 1.23749,-0.055 0.93929,-0.01 1.89448,0.1119 2.81872,-0.1194 0.43878,-0.1098 0.71244,-0.2505 1.11508,-0.4301 0.83027,-0.4475 1.18467,-0.4244 2.05101,-0.1084 1.89888,0.6767 3.83839,0.069 5.68608,-0.4752 0.88388,-0.1726 1.69342,-0.6997 2.5927,-0.8156 0.33649,-0.043 0.72337,0.3152 0.37158,0.1331 0.41015,0.4964 0.8045,1.1203 1.42442,1.372 0.31129,0.1264 0.54799,0.1315 0.87873,0.1713 1.16468,0.049 2.3325,-0.01 3.4977,-0.033 0.46699,-0.011 0.93387,-0.01 1.40084,-0.01 0.0829,2e-4 0.18936,0.039 0.24787,-0.02 0.0272,-0.027 0.037,-0.068 0.0555,-0.1013 0.34165,-0.2487 0.13578,-0.1171 0.63521,-0.3658 0,0 -0.041,-0.044 -0.041,-0.044 v 0 c -0.51215,0.2549 -0.26593,0.181 -0.72457,0.2642 -0.60934,-0.1584 -1.25234,-0.056 -1.87507,-0.076 -1.16024,0.03 -2.32364,0.1015 -3.48325,0.039 -0.33686,-0.046 -0.55467,-0.052 -0.86861,-0.1878 -0.11184,-0.048 -0.20339,-0.1358 -0.31319,-0.1887 -0.015,-0.01 0.0298,0.058 0.0182,0.046 -0.19917,-0.2068 -0.31561,-0.3706 -0.49005,-0.597 -0.0346,-0.039 -0.5079,-0.652 -0.71911,-0.7187 -0.25197,-0.08 -0.65293,0.078 -0.84897,0.1418 -0.67767,0.2221 -1.3342,0.5063 -2.02315,0.6956 -1.86017,0.5377 -3.80033,1.1233 -5.70105,0.4165 -0.87983,-0.3153 -1.23715,-0.3163 -2.07079,0.1378 -0.39125,0.1768 -0.67361,0.3231 -1.09965,0.4306 -0.92183,0.2327 -1.87984,0.1 -2.81674,0.1119 -0.55744,0.01 -0.69699,0 -1.24809,0.05 -0.64756,0.058 -1.25747,0.1975 -1.87225,-0.1181 -0.13622,-0.084 -0.26895,-0.1746 -0.40867,-0.253 -0.008,0 -0.0216,0.016 -0.0276,0.01 -0.40774,-0.507 -0.50652,-1.0575 -0.70849,-1.659 -0.18432,-0.1806 -0.3355,-0.4029 -0.55294,-0.5419 -0.23517,-0.1503 -0.96033,-0.1014 -1.1433,-0.075 -0.99805,0.1426 -1.89188,0.6336 -2.795,1.0457 -1.86055,0.8791 -3.73557,1.7827 -5.83622,1.8351 -0.59911,0.057 -0.81992,0.067 -1.41927,0.1722 -1.01706,0.178 -2.0041,0.522 -3.04319,0.5757 -0.57896,0.029 -0.9434,0.077 -1.51633,-0.01 -1.25178,-0.1919 -2.36371,-0.8261 -3.46794,-1.4054 -0.74643,-0.3053 -0.93639,-0.4571 -1.71498,-0.5192 -1.0122,-0.081 -1.92343,0.3275 -2.78269,0.8146 -0.59315,0.3253 -1.32521,0.8552 -2.03837,0.6045 -0.31947,-0.1123 -0.76704,-0.8855 -0.80314,-0.9342 -0.5859,-0.9186 -0.82303,-1.3479 -1.56326,-2.2259 -0.18821,-0.2233 -0.38621,-0.446 -0.62562,-0.6132 -0.5426,-0.3789 -1.22226,-0.1819 -1.78695,-0.012 -0.81133,0.3805 -1.60767,0.816 -2.48332,1.0367 -1.01332,0.2555 -2.05654,0.2172 -3.08416,0.092 -0.24852,-0.036 -1.83792,-0.2719 -2.11185,-0.3015 -1.47677,-0.1596 -2.96528,-0.1088 -4.44623,-0.052 -1.21267,0.064 -2.4328,0.1619 -3.64662,0.054 -0.87752,-0.078 -1.19275,-0.1854 -2.0166,-0.4119 -0.30553,-0.084 -0.60978,-0.1725 -0.91467,-0.2588 -0.25988,-0.051 -0.51739,-0.1164 -0.77963,-0.1537 -0.56685,-0.081 -0.99286,-0.074 -1.56144,-0.093 -0.877,-0.028 -1.75492,-0.08 -2.63237,-0.029 -1.80387,0.2055 -3.56333,0.6493 -5.34493,0.9894 -0.82544,0.239 -0.84467,0.2181 -1.65231,0.5626 -1.37376,0.5858 -2.65399,1.399 -4.1111,1.778 -0.88225,0.1361 -1.11378,0.2468 -1.9881,0.1027 -1.23175,-0.2029 -2.22406,-0.9659 -3.349756,-1.4436 -0.59891,-0.2299 -1.01633,-0.4089 -1.64272,-0.571 -1.00641,-0.2604 -2.05607,-0.2959 -3.08505,-0.1793 -1.41025,0.3167 -2.78337,0.8066 -4.23223,0.9335 -1.32272,0.1892 -2.67149,0.5176 -4.00484,0.2508 -0.23394,-0.085 -0.47448,-0.1534 -0.7018,-0.2547 -0.2938,-0.1309 -0.93491,-0.5276 -1.21159,-0.6807 -0.48059,-0.2659 -0.58379,-0.3103 -1.08729,-0.5095 -0.20314,-0.08 -0.40863,-0.1547 -0.61294,-0.232 -0.58613,-0.2154 -1.24406,-0.5433 -1.89192,-0.4612 -1.24893,0.1584 -2.25462,1.1012 -3.28983,1.7101 0,0 0.0683,0.07 0.0683,0.07 z" />
    <path
       style="font-variation-settings:normal;vector-effect:none;fill:#e6e6e6;fill-opacity:1;stroke:#e6e6e6;stroke-width:0.499999;stroke-linecap:round;stroke-linejoin:round;stroke-miterlimit:4;stroke-dasharray:none;stroke-dashoffset:0;stroke-opacity:1;-inkscape-stroke:none;stop-color:#000000"
       id="path67362"
       d="m 80.441854,308.63091 c 1.46335,-0.4602 2.6822,-1.0337 3.65492,-2.2476 0.30276,-0.3778 0.46776,-0.857 0.78769,-1.2204 0.0904,-0.1027 0.21857,-0.1647 0.32785,-0.247 1.32539,-0.3308 2.73865,-0.452 4.1041,-0.4367 0.1718,0.028 0.34894,0.034 0.51541,0.085 0.94857,0.2911 1.83258,1.4303 2.49762,2.1304 0.63108,0.6644 1.33076,1.3084 2.27789,1.4331 0.48304,0.063 0.94173,-0.016 1.42118,-0.066 1.86568,-0.3243 3.46017,-1.3475 5.089286,-2.2453 1.13512,-0.5578 2.34646,-1.278 3.66786,-1.1215 0.19782,0.024 0.38564,0.1 0.57845,0.15 0.19934,0.1252 0.40812,0.2365 0.598,0.3756 0.38447,0.2817 1.05678,0.8952 1.42458,1.1912 0.78188,0.6294 1.31352,0.9535 2.21375,1.3731 1.31147,0.5323 2.70105,0.671 4.10164,0.6468 1.16584,-0.013 2.34082,-0.065 3.44642,-0.4765 0.79468,-0.296 1.18613,-0.5513 1.92261,-0.9624 1.0722,-0.6214 2.25638,-1.5893 3.58089,-1.1999 0.15731,0.046 0.30154,0.129 0.45232,0.1934 1.05915,0.6012 2.17273,1.1612 3.37439,1.415 0.29042,0.061 0.58759,0.085 0.88138,0.1271 0.27439,0 0.54878,0.021 0.82317,0.015 0.61126,-0.012 0.96296,-0.07 1.56281,-0.1 0.68634,-0.033 1.37339,-0.019 2.05989,0 0.67763,0.01 1.36519,0.031 2.0158,0.2437 0.40171,0.131 0.77541,0.338 1.17419,0.4777 0.20267,0.071 0.4122,0.1207 0.6183,0.181 0.97208,0.1166 1.9902,0.062 2.8667,-0.4269 0.68785,-0.3837 1.08442,-0.7963 1.66826,-1.3168 1.05409,-0.9429 2.35187,-2.5459 3.87625,-2.6604 0.15361,-0.012 0.30455,0.046 0.45683,0.07 0.11268,0.1052 0.25943,0.183 0.33805,0.3156 0.074,0.1248 0.0554,0.2855 0.10012,0.4235 0.0868,0.2679 0.19,0.5304 0.29381,0.7922 0.20302,0.512 0.44076,1.1069 0.75021,1.5723 0.13541,0.2037 0.30842,0.3797 0.46264,0.5696 0.25508,0.2011 0.48695,0.4358 0.76525,0.6033 0.52108,0.3137 1.13219,0.2002 1.69448,0.1436 0.94037,-0.095 0.6004,-0.065 1.55308,-0.1206 1.23395,-0.032 2.36248,-0.5071 3.51902,-0.8718 0.8469,-0.2671 1.0795,-0.3083 1.94241,-0.5182 1.94664,-0.3925 3.80397,-1.1173 5.75692,-1.4749 0.75759,-0.075 1.32253,-0.1271 1.95724,0.354 0.0458,0.035 0.0725,0.089 0.10735,0.1351 0.12323,0.1619 0.24454,0.3253 0.36682,0.4879 1.01219,1.3441 1.60962,1.4408 3.1689,1.3529 0.88944,-3e-4 1.8311,-0.2219 2.71203,0 0.62741,0.161 0.8231,0.3253 1.38334,0.6473 0.90366,0.5807 1.87268,1.3861 3.03047,1.1325 0.18251,-0.04 0.34919,-0.133 0.52379,-0.1995 0.8316,-0.489 1.52141,-1.3767 2.543,-1.4573 0.29806,-0.024 0.79123,0.1132 1.06971,0.1768 0.18696,0.039 0.3723,0.086 0.56089,0.116 1.14943,0.1814 0.18724,-0.024 1.37054,0.1478 0.85034,0.1232 1.66324,0.3767 2.48637,0.6139 1.27345,0.3483 2.58785,0.3692 3.87631,0.1112 0.86505,-0.1715 1.61461,-1.6393 2.39664,-1.7411 0.10277,-0.014 0.20364,0.039 0.30546,0.058 0.64064,0.5398 1.11127,1.2527 1.88732,1.6349 0.60234,0.2966 0.78719,0.2412 1.4424,0.2793 0.67142,-0.076 1.3689,-0.1296 2.00381,-0.3844 0.65483,-0.2627 1.22085,-0.7177 1.80241,-1.1063 0.20122,-0.092 0.3934,-0.2078 0.60365,-0.2771 0.49497,-0.1634 1.07847,-0.1501 1.43361,0.276 0.0349,0.042 -0.0892,-0.062 -0.13375,-0.094 0.73168,0.9408 0.86315,0.7314 1.71319,0.1263 0,0 -0.0414,-0.043 -0.0414,-0.043 v 0 c -0.68708,0.3392 -0.36532,0.3019 -0.97632,0.2513 -0.0683,-0.01 -0.13785,0 -0.20488,-0.019 -0.0539,-0.012 -0.16164,-0.1139 -0.15469,-0.059 0.0108,0.085 0.0903,0.1645 0.17157,0.192 0.0764,0.026 -0.10305,-0.1242 -0.15458,-0.1863 -0.0789,-0.086 -0.50238,-0.5922 -0.71597,-0.7149 -0.58447,-0.336 -1.28957,-0.01 -1.82193,0.2547 -0.58087,0.3811 -1.14186,0.8387 -1.792,1.0998 -0.63376,0.2545 -1.32829,0.2985 -1.99857,0.3687 -0.64526,-0.044 -0.83391,0.01 -1.42435,-0.2911 -0.77866,-0.3943 -1.21518,-1.119 -1.90241,-1.6252 -0.10543,-0.012 -0.21203,-0.056 -0.3163,-0.037 -0.7915,0.1505 -1.49481,1.5785 -2.36338,1.7665 -1.28608,0.2534 -2.60647,0.2042 -3.87469,-0.1369 -0.82792,-0.2434 -1.64512,-0.4941 -2.50125,-0.6209 -1.58121,-0.2342 0.15231,0.085 -1.37225,-0.1561 -0.18679,-0.03 -0.37084,-0.074 -0.55626,-0.1116 -0.30702,-0.068 -0.75321,-0.195 -1.07881,-0.1594 -1.01414,0.111 -1.69672,0.9935 -2.53592,1.4717 -0.172,0.064 -0.33654,0.1535 -0.51601,0.1918 -1.15446,0.2458 -2.12721,-0.6072 -3.03207,-1.1704 -0.55828,-0.3143 -0.77247,-0.4859 -1.39789,-0.6401 -0.87907,-0.2166 -1.81725,0.029 -2.70338,0.017 -0.57154,0.029 -1.14297,0.09 -1.69302,-0.1165 -0.16352,-0.062 -0.31109,-0.1591 -0.46695,-0.238 -0.0345,-0.018 -0.0775,-0.023 -0.10402,-0.051 -0.12423,-0.1318 -0.22804,-0.2815 -0.34207,-0.4223 -0.96306,-1.3021 -1.36855,-1.6927 -2.9801,-1.4782 -1.94633,0.3744 -3.78913,1.1323 -5.73917,1.4974 -0.88249,0.2114 -1.08304,0.2421 -1.94679,0.5181 -1.15056,0.3677 -2.2768,0.8415 -3.50578,0.8732 -1.01803,0.061 -0.54989,0.024 -1.55442,0.1211 -0.33595,0.033 -0.7866,0.1071 -1.1325,0.038 -0.34627,-0.069 -0.56502,-0.2009 -0.8619,-0.3537 -0.49013,-0.5937 -0.51529,-0.5548 -0.86486,-1.2791 -0.45981,-0.9527 -0.6177,-2.1279 -1.51447,-2.8005 -0.1516,-0.017 -0.30293,-0.067 -0.45481,-0.052 -1.58369,0.1531 -2.77486,1.7048 -3.87291,2.6829 -0.2691,0.2406 -0.52382,0.4982 -0.8073,0.7217 -1.1392,0.8979 -2.27854,1.2184 -3.70873,1.0048 -0.20544,-0.061 -0.41426,-0.1113 -0.61631,-0.1826 -0.40099,-0.1416 -0.77639,-0.352 -1.18165,-0.4809 -0.64848,-0.2061 -1.3364,-0.2024 -2.00821,-0.2259 -0.40828,-0.01 -0.91298,-0.019 -1.32336,0 -1.0269,0.039 -2.04946,0.2125 -3.07949,0.1388 -0.29224,-0.042 -0.58784,-0.064 -0.87673,-0.125 -1.20429,-0.253 -2.31532,-0.823 -3.3775,-1.4223 -0.3903,-0.1594 -0.53391,-0.2574 -0.97401,-0.2682 -1.14365,-0.028 -2.0894,0.812 -3.03274,1.3264 -0.72381,0.4136 -1.12247,0.6793 -1.90681,0.9756 -1.09933,0.4154 -2.27341,0.4711 -3.43425,0.4864 -1.39657,0.02 -2.7804,-0.1035 -4.089,-0.637 -0.90122,-0.42 -1.42694,-0.7409 -2.20985,-1.371 -0.35681,-0.2872 -1.05206,-0.9173 -1.42496,-1.1901 -0.19126,-0.14 -0.40155,-0.2518 -0.60233,-0.3777 -0.19125,-0.047 -0.37795,-0.1201 -0.57376,-0.1417 -1.32695,-0.1467 -2.53638,0.5484 -3.67376,1.1198 -1.621116,0.9083 -3.221746,1.9199 -5.082476,2.249 -0.47734,0.049 -0.93849,0.129 -1.41958,0.064 -0.90246,-0.1212 -1.58543,-0.7159 -2.19083,-1.3506 -0.66543,-0.7008 -1.64025,-1.9263 -2.58688,-2.2148 -0.16608,-0.051 -0.34286,-0.055 -0.5143,-0.082 -0.7521,-0.01 -1.47934,0.037 -2.22762,0.1205 -0.11104,0.012 -1.20281,0.1414 -1.37796,0.176 -0.17173,0.034 -0.3379,0.092 -0.50685,0.1374 -0.10796,0.085 -0.23404,0.1503 -0.32389,0.2539 -0.31687,0.3657 -0.48445,0.8421 -0.78695,1.2197 -0.97169,1.213 -2.18981,1.7854 -3.6519,2.2448 0,0 0.0395,0.045 0.0395,0.045 z" />
    <path
       style="font-variation-settings:normal;vector-effect:none;fill:#87cdde;fill-opacity:1;stroke:#87cdde;stroke-width:0.499999;stroke-linecap:round;stroke-linejoin:round;stroke-miterlimit:4;stroke-dasharray:none;stroke-dashoffset:0;stroke-opacity:1;-inkscape-stroke:none;stop-color:#000000"
       id="path67364"
       d="m 199.45055,306.14801 c -0.98267,0.7807 -2.05346,1.5851 -3.31093,1.8596 -0.89226,0.1948 -1.76367,-0.039 -2.62485,-0.2418 -1.26097,-0.4063 -2.37695,-1.119 -3.43548,-1.8991 -0.0503,-0.037 -1.45275,-1.1483 -1.64477,-1.2816 -0.17209,-0.1194 -0.35992,-0.2144 -0.53988,-0.3217 -0.13527,-0.037 -0.26637,-0.096 -0.40581,-0.1109 -0.66923,-0.072 -1.3846,0.3053 -1.8619,0.7348 -0.1726,0.1553 -0.31429,0.3419 -0.47143,0.5129 -0.69784,0.7987 -1.2585,1.7515 -2.11032,2.4092 -0.70013,0.5406 -1.59038,0.6607 -2.43004,0.8097 -1.08584,0.1034 -2.20344,0.103 -3.26648,-0.1748 -0.65124,-0.1702 -1.07495,-0.3598 -1.69782,-0.6065 -1.33608,-0.5627 -2.63362,-1.2417 -4.0406,-1.6203 -0.84295,-0.2268 -1.02653,-0.2113 -1.88536,-0.2995 -1.62897,-0.051 -3.22302,0.3039 -4.80443,0.6451 -1.01557,0.2658 -2.0574,0.3863 -3.10356,0.4374 -0.92184,0.045 -1.1812,-0.01 -2.1044,0.1211 -0.31872,0.044 -0.63156,0.1228 -0.94734,0.1842 -1.15941,0.3363 -2.28028,0.8157 -3.50343,0.8609 -0.57735,0.021 -1.16389,-0.045 -1.73766,-0.092 -1.55419,-0.1953 -3.02374,-0.7543 -4.54538,-1.0994 -0.75315,-0.1293 -1.58969,-0.3026 -2.30304,0.077 -0.37144,0.1979 -0.68994,0.4821 -1.03303,0.7259 -0.2334,0.1172 -0.45434,0.2636 -0.70022,0.3518 -1.47617,0.5294 -2.83972,-0.2985 -4.08995,-0.995 -0.97068,-0.5437 -1.95152,-1.2802 -3.08526,-1.441 -0.1368,-0.019 -0.27613,-0.011 -0.41419,-0.016 -0.806,0.084 -1.5925,0.041 -2.33311,-0.3185 -0.22711,-0.1102 -0.43911,-0.2492 -0.65867,-0.3738 -0.93025,-0.5382 -2.17351,-1.862 -3.25079,-1.9963 -0.437,-0.054 -0.71998,0.1324 -1.10213,0.2972 -1.23617,0.7695 -1.73479,2.2443 -2.68317,3.2899 -0.32033,0.3532 -0.69125,0.6569 -1.03688,0.9854 -0.26394,0.1312 -0.51095,0.3042 -0.79183,0.3936 -1.10006,0.3502 -3.15148,0.099 -4.25395,-0.2102 -0.3156,-0.088 -0.61654,-0.2227 -0.92481,-0.334 -0.28405,-0.1474 -0.57251,-0.2866 -0.85213,-0.4422 -1.21251,-0.6749 -0.23269,-0.203 -1.47054,-0.8571 -0.7056,-0.3728 -1.43107,-0.6645 -2.1779,-0.9406 -1.24023,-0.4003 -2.36444,-1.1366 -3.64521,-1.4191 -0.19638,-0.043 -0.3982,-0.057 -0.5973,-0.085 -0.73257,0.07 -1.582,0.01 -2.25145,0.3733 -0.14197,0.078 -0.26688,0.1831 -0.40033,0.2746 -0.5776,0.5632 -1.2499,1.0289 -1.81035,1.6101 -0.27539,0.2856 -0.48696,0.6265 -0.7293,0.9406 -0.60681,0.8301 -1.24391,1.7849 -2.2289,2.2029 -0.3562,0.1511 -0.57391,0.1537 -0.945,0.1995 -0.6094,-0.01 -1.19475,0.1867 -1.79115,0.2636 -0.51161,0.066 -0.95359,0.068 -1.467986,0.085 -0.57975,0.011 -0.94337,-0.1327 -1.34175,-0.531 -0.0854,-0.085 -0.15357,-0.1879 -0.24399,-0.268 -0.21561,-0.191 -0.30117,-0.2008 -0.55886,-0.3049 -0.80032,-0.2401 -1.30699,-0.8679 -1.89096,-1.4124 -0.041,-0.012 -0.0805,-0.041 -0.12293,-0.036 -0.09,0.011 -0.14968,0.1065 -0.23532,0.1362 -0.27889,0.097 -0.51493,0.032 -0.79192,-0.035 -0.79364,-0.3105 -1.60282,-0.6471 -2.47639,-0.5313 -0.20515,0.027 -0.4035,0.092 -0.60524,0.1383 -1.05907,0.4232 -2.11486,1.3128 -3.32695,0.9722 -0.1524,-0.043 -0.28798,-0.1315 -0.43198,-0.1973 -0.31089,-0.1385 -0.5024,-0.448 -0.80423,-0.5979 -0.23246,-0.1154 -0.51892,-0.1353 -0.77021,-0.1823 -0.57962,-0.1278 -1.17081,-0.1681 -1.74327,-0.3254 -0.71318,-0.2736 -1.46666,-0.3413 -2.22203,-0.3761 -0.33802,-0.041 -0.66249,-0.1255 -1.00315,-0.1026 -0.27837,0.045 -0.51277,-0.05 -0.77561,-0.1334 0,0 0.039,-0.046 0.039,-0.046 v 0 c 0.35206,-0.066 0.70122,-0.1477 1.05521,-0.1992 0.33914,-0.023 0.66241,0.085 0.99839,0.1175 0.75908,0.051 1.51836,0.088 2.23605,0.3751 0.57262,0.1473 1.16158,0.1955 1.73858,0.325 0.26028,0.047 0.54624,0.072 0.78502,0.1966 0.29712,0.1545 0.47917,0.4625 0.78761,0.603 0.14019,0.063 0.27224,0.1492 0.42058,0.1899 1.20581,0.3309 2.25268,-0.5816 3.31252,-0.9814 0.20506,-0.045 0.40678,-0.1099 0.61518,-0.1355 0.87484,-0.1073 1.68924,0.2354 2.48669,0.537 0.27686,0.059 0.31579,0.097 0.57278,0.059 0.14363,-0.021 0.32367,-0.1727 0.46503,-0.1624 0.0473,0 0.0869,0.038 0.13038,0.057 0.56397,0.5634 1.06995,1.1781 1.8737,1.4048 0.26376,0.1109 0.35168,0.123 0.57243,0.3207 0.0891,0.08 0.15658,0.1811 0.23978,0.267 0.38425,0.3969 0.72326,0.5385 1.295356,0.529 0.63902,-0.027 0.84512,-0.02 1.48125,-0.1127 0.59801,-0.087 1.18567,-0.2686 1.79713,-0.2649 0.62565,-0.083 0.86045,-0.172 1.41145,-0.489 0.0617,-0.036 0.13521,-0.056 0.18498,-0.1067 0.31428,-0.3214 0.64302,-0.8068 0.90295,-1.1671 0.16963,-0.2224 0.32611,-0.4554 0.50888,-0.6671 0.81682,-0.9461 1.76389,-1.7464 2.70653,-2.5606 0.13615,-0.089 0.26425,-0.1923 0.40844,-0.268 0.68106,-0.3573 1.52562,-0.3125 2.26791,-0.3527 0.20115,0.03 0.40527,0.043 0.60345,0.089 1.27637,0.2925 2.39335,1.0431 3.63521,1.435 0.74202,0.2834 1.46928,0.5833 2.17089,0.9591 1.01739,0.5449 0.46472,0.3032 1.45864,0.8673 0.27595,0.1566 0.56069,0.2971 0.84104,0.4457 0.30371,0.1134 0.59955,0.2507 0.91114,0.3401 1.18526,0.3404 3.06194,0.5663 4.24974,0.1697 0.27753,-0.093 0.52083,-0.2667 0.78125,-0.4001 0.14129,-0.1215 0.30166,-0.2238 0.42387,-0.3645 1.10611,-1.2732 1.76431,-2.9662 3.27645,-3.8606 0.4003,-0.1615 0.65928,-0.3329 1.10895,-0.2628 0.52962,0.083 1.04898,0.4709 1.46288,0.7522 0.60189,0.409 1.16934,0.8674 1.78394,1.2585 0.218,0.1236 0.42733,0.264 0.654,0.3708 0.74022,0.3492 1.54451,0.3577 2.34299,0.2899 0.13873,0.01 0.27889,0 0.41619,0.025 1.13133,0.1773 2.10853,0.9133 3.07587,1.4665 1.23765,0.6971 2.60467,1.5225 4.06449,0.971 0.24819,-0.094 0.47054,-0.2453 0.70581,-0.3679 0.0972,-0.07 0.88714,-0.6445 1.045,-0.7251 0.72065,-0.3676 1.55994,-0.1763 2.31685,-0.06 1.50987,0.3666 2.97874,0.9053 4.52297,1.1168 0.62361,0.054 1.1025,0.1158 1.73171,0.089 1.21751,-0.052 2.33399,-0.5276 3.49227,-0.8517 0.31307,-0.056 0.62362,-0.1292 0.93921,-0.1692 0.9881,-0.1253 1.10796,-0.065 2.09061,-0.1039 0.87604,-0.035 1.23711,-0.066 2.11277,-0.2252 0.33142,-0.06 0.65827,-0.1432 0.9874,-0.2149 1.57531,-0.3434 3.16902,-0.6963 4.79242,-0.6171 0.86087,0.096 1.03464,0.081 1.87886,0.3147 1.40203,0.3882 2.69864,1.0734 4.03766,1.6256 0.65603,0.2552 1.01753,0.4179 1.70234,0.595 1.05557,0.273 2.15934,0.2876 3.23904,0.1934 0.6216,-0.1097 1.11357,-0.1617 1.70427,-0.4111 1.15226,-0.4866 1.76895,-1.612 2.54207,-2.5254 0.24472,-0.2567 0.47187,-0.5315 0.73418,-0.7702 0.46446,-0.4227 1.18562,-0.7635 1.83458,-0.6802 0.13874,0.018 0.26823,0.08 0.40235,0.1193 0.17809,0.1098 0.36434,0.2073 0.53427,0.3294 0.56373,0.4048 1.07106,0.8837 1.62704,1.2991 1.0521,0.7861 2.16469,1.5023 3.42493,1.9065 0.85999,0.2073 1.7259,0.4398 2.61828,0.244 1.2568,-0.2758 2.32684,-1.0802 3.30899,-1.8612 0,0 -0.0355,0.048 -0.0355,0.048 z" />
    <path
       style="font-variation-settings:normal;vector-effect:none;fill:#e6e6e6;fill-opacity:1;stroke:#e6e6e6;stroke-width:0.499999;stroke-linecap:round;stroke-linejoin:round;stroke-miterlimit:4;stroke-dasharray:none;stroke-dashoffset:0;stroke-opacity:1;-inkscape-stroke:none;stop-color:#000000"
       id="path67368"
       d="m 76.869524,384.86311 c 1.32926,-0.563 2.68599,-1.1733 3.60049,-2.3415 0.46863,-0.5986 0.85165,-1.596 1.21057,-2.2935 1.14711,-1.7672 2.26932,-3.5571 3.51027,-5.2608 0.64583,-0.8354 1.43315,-1.5427 2.12928,-2.3336 0.50233,-0.5708 0.55933,-0.665 1.03088,-1.2751 0.88264,-1.1767 1.56521,-2.4826 2.37138,-3.7106 0.95987,-1.4326 2.09133,-2.7368 3.25922,-4.0012 1.3804,-1.5118 2.86057,-2.921 4.38355,-4.2867 1.41308,-1.2197 2.792446,-2.4765 4.172676,-3.7329 0.60937,-0.5188 1.27138,-1.0659 2.08977,-1.1937 0.36265,-0.057 0.58903,-0.02 0.94635,0.01 0.93268,0.1316 1.87044,0 2.8041,0.1119 1.24204,0.3516 2.47646,0.7408 3.67649,1.2177 1.27861,0.5361 2.51537,1.1391 3.65594,1.929 1.18778,0.8569 2.38821,1.6949 3.53667,2.6045 1.03908,0.8771 1.66428,2.1232 2.33804,3.2802 0.64022,0.9432 1.24994,1.9057 1.87267,2.8605 0.6622,1.1138 1.56926,1.9366 2.65265,2.6292 1.18948,0.7168 2.09966,0.7994 3.44867,0.7946 0.90817,0.024 1.79648,-0.1366 2.68808,-0.2796 0.53512,-0.069 0.87253,0.048 1.30192,0.3591 0.70929,0.5443 1.32898,0.6159 2.19489,0.5629 1.00332,-0.01 1.91302,-0.4324 2.84414,-0.7484 0.92332,-0.2892 1.61474,-0.1957 2.42736,0.3173 0.12087,0.1129 0.25354,0.2145 0.36262,0.3388 0.0148,0.017 -0.0188,0.048 -0.007,0.067 0.14129,0.2216 0.30765,0.4263 0.45841,0.6417 0.45713,0.6529 0.91286,1.2906 1.41562,1.9096 0.90534,1.0805 1.68149,2.2523 2.75345,3.1834 0.16135,0.1401 0.34788,0.2483 0.52182,0.3725 1.0618,0.5312 1.88945,1.3797 2.82057,2.092 0.80708,0.5157 1.58832,1.0936 2.49421,1.4203 0.9464,0.1601 1.93221,0 2.83963,-0.2827 1.19215,-0.5303 1.98978,-1.6055 2.88844,-2.5088 0.7337,-0.649 1.33104,-1.4255 1.98911,-2.146 0.67021,-0.609 1.3604,-1.1902 2.01708,-1.8163 0.97908,-0.9805 1.81187,-2.0877 2.81708,-3.0425 0.71434,-0.5648 1.46955,-1.0842 2.24937,-1.5551 0.59915,-0.3713 1.00696,-0.9617 1.47462,-1.4751 0.74133,-0.7067 1.30152,-1.5683 1.86763,-2.4145 0.62645,-0.9268 1.20655,-1.8835 1.72416,-2.8752 0.21207,-0.4558 0.44182,-0.9025 0.67207,-1.3493 0.31124,-0.376 1.12532,-0.4593 1.5763,-0.5741 0.76263,-0.214 1.56321,-0.1354 2.32819,-0.3362 0.5331,-0.1398 0.66557,-0.2374 1.15924,-0.4824 0.96179,-0.5824 1.51635,-0.704 2.57003,-0.3257 0.94868,0.5304 1.9686,0.5673 3.02669,0.5503 1.47027,-0.093 2.96107,0.074 4.42262,-0.1549 0.36007,-0.056 0.71314,-0.1507 1.06972,-0.226 1.25745,-0.3803 2.59288,-0.5957 3.75888,-1.2311 0.60229,-0.3282 0.73844,-0.4962 1.24931,-0.9424 0.76639,-0.8764 1.55913,-1.6986 2.5419,-2.3287 0.68381,-0.4158 1.34756,-0.8791 2.13495,-1.069 0.0176,-0.2534 0.64383,0.28 0.51432,0.1542 -0.54063,-0.5249 -0.11786,-0.089 -0.0251,0.01 0.19129,0.1824 0.50606,0.7605 0.87073,0.5615 0.084,-0.046 0.13722,-0.096 0.23299,-0.1099 0.012,0 0.0306,0 0.0359,-0.01 0.0199,-0.042 0.01,-0.094 0.0316,-0.1354 0.0641,-0.1202 0.28547,-0.3451 0.36152,-0.4279 0,0 -0.0426,-0.042 -0.0426,-0.042 v 0 c -0.32451,0.3533 -0.35755,0.3377 -0.7795,0.1649 -0.10557,0.016 -0.23647,0.1431 -0.33358,0.1335 -0.0455,0 -0.14943,-0.089 -0.12832,-0.048 0.056,0.1075 0.16247,0.1799 0.2437,0.2699 -0.39477,-0.4153 -0.72996,-1.08 -1.37104,-0.9566 -0.77823,0.2205 -1.46774,0.6554 -2.14852,1.0816 -0.30356,0.1984 -0.50097,0.3172 -0.78734,0.5494 -0.65157,0.5283 -1.16297,1.2014 -1.75229,1.7933 -0.49693,0.4309 -0.65324,0.6139 -1.23842,0.9301 -1.16652,0.6304 -2.49948,0.8342 -3.75362,1.2178 -0.35524,0.074 -0.70712,0.1659 -1.06571,0.221 -1.46865,0.2257 -2.96418,0.037 -4.44118,0.1259 -1.05549,0.013 -2.06293,-0.051 -3.01174,-0.5658 -1.07105,-0.3591 -1.63133,-0.2233 -2.59837,0.3668 -0.46664,0.2297 -0.63954,0.3459 -1.14459,0.4737 -0.77009,0.1948 -1.57822,0.103 -2.34366,0.3242 -0.51017,0.1203 -1.27654,0.1643 -1.63002,0.5964 -0.22782,0.4499 -0.45707,0.8984 -0.66025,1.3601 -0.50804,0.9955 -1.09519,1.9458 -1.71194,2.8774 -0.56008,0.8462 -1.12456,1.7014 -1.86334,2.4055 -0.46459,0.5076 -0.85936,1.1064 -1.45867,1.466 -0.78405,0.4711 -1.52954,1.0105 -2.25044,1.5721 -1.02238,0.939 -1.83154,2.0681 -2.81187,3.049 -0.65271,0.6317 -1.34968,1.2076 -2.01021,1.8292 -0.64698,0.7293 -1.24046,1.508 -1.96664,2.1639 -0.90256,0.8872 -1.67956,1.9762 -2.87643,2.4827 -0.90016,0.2758 -1.89499,0.4011 -2.82724,0.2391 -0.89006,-0.3372 -1.66953,-0.9025 -2.46726,-1.4136 -0.92907,-0.7142 -1.76783,-1.5479 -2.82131,-2.0903 -0.17225,-0.1257 -0.3421,-0.2548 -0.51675,-0.3772 -0.0213,-0.015 -0.0526,-0.015 -0.0703,-0.034 -0.69207,-0.7479 -1.23091,-1.623 -1.91914,-2.3744 -0.48166,-0.585 -0.49473,-0.5813 -0.9557,-1.2285 -0.6149,-0.8632 -1.1582,-1.7961 -2.01486,-2.4543 -0.82386,-0.4868 -1.50034,-0.5595 -2.4046,-0.2243 -0.90883,0.3614 -1.80964,0.7632 -2.80831,0.7706 -0.87104,0.045 -1.47869,-0.045 -2.18629,-0.5947 -0.40731,-0.2829 -0.81016,-0.4111 -1.30935,-0.3194 -0.88238,0.1613 -1.76445,0.3083 -2.66594,0.2959 -1.28256,0 -2.31029,-0.1043 -3.42834,-0.8013 -0.95456,-0.6156 -1.60586,-1.1679 -2.1863,-2.1595 -0.62902,-0.9573 -1.23535,-1.9283 -1.88759,-2.8698 -0.77727,-1.3252 -1.50791,-2.7014 -2.73612,-3.6745 -1.14548,-0.9013 -2.34121,-1.7333 -3.52385,-2.5846 -1.13909,-0.7712 -2.36954,-1.3673 -3.63782,-1.8976 -1.19754,-0.4695 -2.4293,-0.8512 -3.66722,-1.1985 -0.93299,-0.1036 -1.87173,0.03 -2.80328,-0.1098 -0.35212,-0.024 -0.5921,-0.059 -0.94858,0 -0.81589,0.1336 -1.48397,0.6846 -2.0896,1.2056 -1.38547,1.2501 -2.755596,2.5172 -4.167606,3.7378 -1.53125,1.358 -3.0058,2.7731 -4.39323,4.2793 -1.1647,1.2687 -2.29144,2.5777 -3.25707,4.0071 -0.80397,1.2294 -1.48787,2.5335 -2.36792,3.7123 -0.44586,0.5783 -0.55052,0.7348 -1.02876,1.2752 -0.69851,0.7893 -1.48751,1.4978 -2.12187,2.3434 -1.23451,1.7098 -2.34734,3.5061 -3.50694,5.2669 -0.11994,0.2319 -0.24612,0.4606 -0.35981,0.6956 -0.27976,0.5782 -0.43902,1.082 -0.83677,1.6062 -0.89821,1.1838 -2.23532,1.8099 -3.57377,2.361 0,0 0.0611,0.068 0.0611,0.068 z" />
    <path
       style="font-variation-settings:normal;vector-effect:none;fill:#87cdde;fill-opacity:1;stroke:#87cdde;stroke-width:0.499999;stroke-linecap:round;stroke-linejoin:round;stroke-miterlimit:4;stroke-dasharray:none;stroke-dashoffset:0;stroke-opacity:1;-inkscape-stroke:none;stop-color:#000000"
       id="path67370"
       d="m 77.513324,362.84251 c 1.53177,-0.1148 3.06131,-0.3498 4.49716,-0.9155 0.4367,-0.1721 0.82644,-0.4513 1.26503,-0.6185 0.22217,-0.085 0.45698,-0.1316 0.68548,-0.1973 1.57356,-0.2008 3.13776,0.1829 4.62853,0.6571 1.77092,0.5603 3.19968,1.7316 4.62738,2.8684 1.16244,0.9865 2.48741,1.708 3.87458,2.3187 1.21914,0.463 2.18659,1.3195 3.205186,2.098 0.59566,0.4664 1.30914,0.7434 1.93579,1.1585 0.34073,0.2257 0.45855,0.3456 0.76034,0.6093 0.65724,0.7137 1.55842,1.0845 2.33685,1.6301 0.10465,0.099 0.21491,0.1922 0.31395,0.2967 0.16286,0.1719 0.29647,0.3698 0.45677,0.5441 0.58772,0.639 1.21351,1.2371 1.85231,1.8242 0.76261,0.6451 1.46947,1.3638 2.27661,1.9558 0.58364,0.4281 0.71283,0.48 1.3329,0.8369 1.27185,0.6173 2.59688,1.1548 3.99568,1.3891 1.25817,0.066 2.48887,0.3021 3.69134,0.6715 0.97983,0.3799 2.01923,0.5314 3.04178,0.7448 1.16151,0.3033 2.32621,0.594 3.48902,0.8926 1.38618,0.3463 2.74182,0.7995 4.08953,1.2708 1.11074,0.4351 2.26366,0.6413 3.4461,0.7342 0.782,0.098 1.55245,0.1996 2.34187,0.1739 0.77002,-0.041 1.54099,-0.019 2.31147,-0.011 0.58844,-0.029 1.1666,0.026 1.74746,0.1103 0.6125,0.044 1.23792,0.039 1.84465,-0.062 0.81792,-0.182 1.59448,-0.5061 2.3712,-0.8133 0.84038,-0.3587 1.73502,-0.5487 2.57999,-0.8936 0.59527,-0.222 1.01505,-0.6671 1.48059,-1.0719 0.42933,-0.4063 0.85565,-0.8155 1.29168,-1.2147 0.67579,-0.6464 1.28646,-1.3586 1.91921,-2.0475 0.42774,-0.3416 0.5753,-0.9923 1.05463,-1.2641 0.50172,-0.2245 0.94873,-0.5464 1.42159,-0.8227 0.87478,-0.4421 1.72472,-0.9298 2.57754,-1.4124 1.19507,-0.566 2.10791,-1.5191 3.05161,-2.4163 0.41195,-0.4566 0.98909,-0.5906 1.52356,-0.8345 0.28611,-0.1497 0.6189,-0.1516 0.91851,-0.2577 0.14606,-0.052 0.40624,-0.1872 0.54213,-0.255 0.66542,-0.3754 1.3595,-0.5949 2.11927,-0.6513 0.65463,-0.04 1.27757,0.1735 1.9146,0.279 0.81922,0.1335 1.63501,0.1972 2.46508,0.188 1.06687,-0.01 2.12911,-0.1182 3.19441,-0.1609 0.52064,0.011 1.09531,-0.056 1.59162,0.1529 0.23043,0.097 0.36104,0.2096 0.56205,0.3553 0.49969,0.4177 1.1159,0.4584 1.72727,0.5661 0.78304,0.1389 1.49754,0.5065 2.22635,0.8082 0.75946,0.3388 1.57543,0.5067 2.391,0.644 0.93666,0.1558 1.87258,0.2848 2.8234,0.2534 0.82332,-0.054 1.6484,-0.024 2.47268,-0.033 0.88872,-0.035 1.75661,-0.2527 2.62178,-0.4432 0.37797,-0.1076 0.76177,-0.05 1.14686,-0.065 0.89528,-0.044 1.7189,-0.411 2.58138,-0.6098 0.5822,-0.061 1.16538,-0.1586 1.75218,-0.1472 0.69927,0.029 1.39941,0.013 2.09904,0.01 0.50494,-0.01 1.01165,-0.018 1.51078,0.07 -0.4943,-0.5021 -0.57467,-0.6457 -0.41733,-0.3937 0,0 0.22533,0.2733 0.22533,0.2733 v 0 c 0.29824,0.2902 -0.0911,-0.2884 -0.21466,-0.3717 -0.50768,-0.076 -1.01663,-0.091 -1.53009,-0.076 -0.70113,0 -1.40255,0.011 -2.10334,-0.017 -0.59075,0 -1.17889,0.091 -1.7647,0.1576 -0.85382,0.2119 -1.67369,0.5786 -2.56585,0.6074 -0.38753,0.011 -0.77046,-0.043 -1.14788,0.083 -0.85995,0.2013 -1.72731,0.405 -2.61408,0.4304 -0.82961,0 -1.66005,-0.032 -2.48892,0.017 -0.94974,0.037 -1.88018,-0.1065 -2.81501,-0.2652 -0.81362,-0.1474 -1.62715,-0.3191 -2.38523,-0.6608 -0.73433,-0.3062 -1.45813,-0.6686 -2.24744,-0.8099 -0.60998,-0.1041 -1.21182,-0.169 -1.70527,-0.5883 -0.22016,-0.1517 -0.33447,-0.2502 -0.58595,-0.3465 -0.50476,-0.1934 -1.08042,-0.1173 -1.60463,-0.1336 -1.06044,0.053 -2.11879,0.1487 -3.18077,0.1732 -0.82695,0.01 -1.64036,-0.062 -2.45628,-0.1965 -0.63399,-0.1077 -1.25437,-0.31 -1.90672,-0.244 -0.76187,0.069 -1.47442,0.2891 -2.14738,0.6578 -0.16744,0.084 -0.35259,0.1843 -0.53041,0.2474 -0.30157,0.1071 -0.63464,0.1159 -0.92032,0.2727 -0.53804,0.248 -1.1125,0.4029 -1.52006,0.8696 -0.92114,0.9161 -1.83098,1.8632 -3.03149,2.4139 -0.85598,0.478 -1.70657,0.9645 -2.57859,1.4128 -0.47364,0.2762 -0.92326,0.5959 -1.42526,0.8207 -0.46695,0.3065 -0.61527,0.9409 -1.04167,1.3013 -0.63128,0.688 -1.24052,1.3994 -1.91461,2.045 -0.4356,0.3997 -0.89512,0.7727 -1.29681,1.2085 -0.44873,0.4138 -0.88613,0.8299 -1.46721,1.0563 -0.84858,0.3406 -1.7464,0.5247 -2.58867,0.8838 -0.77066,0.3114 -1.54419,0.6361 -2.36153,0.8039 -0.60291,0.092 -1.22044,0.1013 -1.82797,0.054 -0.58322,-0.088 -1.16254,-0.1373 -1.75351,-0.1044 -0.7692,0 -1.53916,-0.017 -2.30776,0.019 -0.78828,0.026 -1.55574,-0.084 -2.33689,-0.1779 -1.17873,-0.083 -2.32861,-0.2951 -3.4307,-0.7395 -1.34866,-0.4628 -2.69957,-0.9248 -4.087,-1.26 -1.15977,-0.2968 -2.32055,-0.5899 -3.48201,-0.8796 -1.01983,-0.2054 -2.05172,-0.3621 -3.02895,-0.7364 -1.19708,-0.3398 -2.41301,-0.5618 -3.65831,-0.621 -1.38337,-0.2246 -2.69506,-0.7415 -3.94966,-1.3579 -0.62537,-0.3613 -0.73394,-0.4014 -1.32316,-0.8348 -0.79819,-0.587 -1.50054,-1.295 -2.25615,-1.9329 -0.91398,-0.8396 -1.73176,-1.7635 -2.60995,-2.6381 -0.78085,-0.5155 -1.65938,-0.8904 -2.30558,-1.5948 -0.30554,-0.2626 -0.41403,-0.3724 -0.75862,-0.5975 -0.62282,-0.407 -1.32714,-0.6825 -1.91831,-1.1414 -1.014196,-0.7768 -1.984406,-1.6197 -3.199206,-2.0793 -1.36769,-0.5986 -2.67196,-1.3126 -3.82847,-2.2684 -1.42898,-1.1374 -2.86235,-2.3041 -4.63404,-2.8649 -1.48143,-0.4607 -3.03304,-0.8513 -4.59135,-0.5982 -0.22408,0.072 -0.45455,0.1256 -0.67225,0.2147 -0.43115,0.1765 -0.81112,0.4637 -1.24154,0.642 -1.42526,0.5905 -2.95661,0.8074 -4.48472,0.9266 0,0 0.0392,0.045 0.0392,0.045 z" />
    <path
       style="font-variation-settings:normal;vector-effect:none;fill:#000000;fill-opacity:1;stroke:none;stroke-width:0.499999;stroke-linecap:round;stroke-linejoin:round;stroke-miterlimit:4;stroke-dasharray:none;stroke-dashoffset:0;stroke-opacity:1;-inkscape-stroke:none;stop-color:#000000"
       id="path67372"
       d="m 197.05399,383.91751 c -0.545,0.1961 -1.52127,1.0944 -2.20147,0.9745 -0.0603,-0.011 -0.10485,-0.075 -0.1288,-0.1312 -0.0109,-0.026 0.0544,0.013 0.0816,0.02 -0.12527,-0.083 -0.25053,-0.1653 -0.37579,-0.2479 -0.96949,-0.087 -1.90951,-0.3394 -2.8525,-0.5672 -1.02398,-0.3041 -2.12243,-0.3582 -3.10776,-0.7796 -0.11036,-0.078 -0.22355,-0.1513 -0.33109,-0.2328 -0.44962,-0.3406 -0.12312,-0.1422 -0.60658,-0.4601 -0.30496,-0.2005 -0.61479,-0.3763 -0.90718,-0.5957 -0.57996,-0.5886 -1.18567,-1.1457 -1.8205,-1.6753 -0.8269,-0.7522 -1.60301,-1.0004 -2.6573,-1.2694 -0.47395,-0.1288 -0.95797,-0.2198 -1.40169,-0.4399 -0.4605,-0.2285 -0.85612,-0.5738 -1.25962,-0.8863 -0.88989,-0.7119 -1.87099,-1.253 -2.98207,-1.5131 -0.90497,-0.1085 -1.49576,-0.6869 -2.11963,-1.2839 -0.49725,-0.4342 -1.02497,-0.8323 -1.54106,-1.2442 -0.51801,-0.3706 -1.04991,-0.7148 -1.55427,-1.1048 -0.64817,-0.509 -0.84078,-1.3597 -1.15931,-2.0832 -0.47476,-0.9933 -1.15529,-1.7655 -2.07256,-2.3733 -1.11331,-0.6663 -2.17521,-1.414 -3.36186,-1.9469 -1.0217,-0.3219 -1.9713,-0.8146 -2.95523,-1.2288 -0.81675,-0.326 -1.67006,-0.5569 -2.52633,-0.7532 -0.93755,-0.1459 -1.88969,-0.076 -2.83392,-0.1127 -0.73786,-0.084 -1.46619,-0.1703 -2.21007,-0.1608 -0.7605,-0.06 -1.43064,0.2633 -2.13034,0.4967 -0.80416,0.1654 -1.50127,0.5448 -2.16541,1.0136 -0.60691,0.5005 -1.36658,0.6986 -2.0676,1.0208 -0.74561,0.4109 -1.45992,0.88 -2.16893,1.3513 -0.74947,0.4678 -1.44777,1.0078 -2.1402,1.5545 -0.84409,0.544 -1.66735,1.115 -2.47556,1.711 -0.99947,0.8444 -2.12746,1.4966 -3.26455,2.1327 -0.83314,0.4399 -1.64531,0.931 -2.56527,1.1634 -0.6765,0.2163 -1.28175,0.6072 -1.88554,0.9724 -0.53796,0.3005 -1.02974,0.6888 -1.61496,0.8986 -0.24323,0.087 -0.70074,0.1984 -0.94543,0.2613 -0.66513,0.1975 -1.3426,0.1763 -2.02005,0.074 -0.76304,-0.2645 -1.55736,-0.3969 -2.34388,-0.5664 -0.84484,-0.1252 -1.48166,-0.6088 -2.13268,-1.1187 -0.83408,-0.5559 -1.21445,-0.9821 -1.8306,-1.666 -0.77641,-0.8747 -1.62024,-1.6659 -2.69055,-2.1505 -0.13435,-0.039 -0.26754,-0.082 -0.40306,-0.1165 -0.32734,-0.083 -0.56392,-0.1065 -0.88146,-0.2271 -0.30464,-0.1158 -0.67204,-0.3305 -0.97461,-0.4509 -0.17327,-0.069 -0.35368,-0.1184 -0.53053,-0.1776 -0.9717,-0.1981 -1.90706,-0.4924 -2.82474,-0.8652 -0.59041,-0.2298 -1.17243,-0.5221 -1.81303,-0.5783 -0.36098,-0.032 -0.62754,-0.01 -0.9859,0.013 -0.98309,0.088 -1.96949,0.019 -2.9532,0.079 -1.01679,0.1378 -1.93936,0.6041 -2.88332,0.9768 -0.69902,0.2446 -1.32132,0.6416 -1.93636,1.0447 -0.62047,0.4244 -1.25763,0.8233 -1.89724,1.2179 -0.82467,0.5281 -1.62226,1.0965 -2.438076,1.6377 -0.94361,0.6106 -1.96471,1.0811 -2.98156,1.5532 -1.0186,0.365 -1.83299,1.1041 -2.78906,1.5846 -0.19583,0.098 -0.40042,0.1783 -0.60063,0.2675 -0.94957,0.3305 -1.9623,0.6606 -2.97897,0.4554 -0.42071,-0.085 -0.69119,-0.228 -1.09035,-0.3985 -1.08488,-0.5943 -2.23192,-1.006 -3.43624,-1.2704 -0.75473,-0.063 -1.35453,-0.4808 -2.00506,-0.8135 -0.61599,-0.2708 -1.26887,-0.4406 -1.91043,-0.6376 -0.5564,-0.1724 -1.09814,-0.375 -1.67729,-0.4515 -0.43142,-0.016 -0.85857,0.038 -1.29075,0.03 -0.27,-0.017 -0.54103,0 -0.81116,0 -0.45746,0.012 -0.80441,0.3218 -1.21666,0.467 -0.31861,0.078 -0.661,0.05 -0.97674,0.1364 0.005,0.1051 -0.0199,0.08 0.095,0.045 0,0 -0.0464,-0.038 -0.0464,-0.038 v 0 c 0.18769,0.3598 0.0633,0.2516 0.29665,0.3958 0.33765,0.054 0.69195,-0.08 1.02789,-0.1073 0.40292,-0.1534 0.73912,-0.4616 1.19339,-0.4644 0.27235,0 0.54446,0 0.81671,0.01 0.4299,0 0.85802,-0.044 1.28748,-0.022 0.57947,0.086 1.121,0.3031 1.68053,0.4703 0.64285,0.1942 1.29513,0.3708 1.90719,0.6513 0.65007,0.341 1.26159,0.7366 2.017,0.8031 1.19921,0.2694 2.33855,0.6897 3.42388,1.2728 0.42231,0.1787 0.66659,0.3136 1.10981,0.3935 1.0232,0.1845 2.03787,-0.1665 2.99256,-0.4884 0.57356,-0.2642 0.6098,-0.2589 1.13684,-0.5853 0.7283,-0.451 1.40456,-0.9971 2.21048,-1.3123 1.03048,-0.4522 2.0467,-0.9434 2.997,-1.5496 0.815006,-0.5419 1.609666,-1.1137 2.439556,-1.633 0.6461,-0.3867 1.29244,-0.7739 1.90487,-1.2132 0.60801,-0.4097 1.22797,-0.8052 1.93161,-1.0328 0.93178,-0.3789 1.8283,-0.8883 2.84786,-0.9894 0.98817,-0.046 1.9786,0.031 2.96553,-0.064 0.35612,-0.016 0.61911,-0.041 0.97734,0 0.63301,0.065 1.21311,0.3527 1.79834,0.5789 0.91975,0.368 1.86019,0.658 2.82971,0.8665 0.1748,0.06 0.35294,0.1107 0.5244,0.1796 0.54624,0.2193 0.42244,0.2363 0.97433,0.437 0.33911,0.1234 0.53644,0.137 0.8833,0.2302 0.13409,0.036 0.26539,0.082 0.39808,0.1226 0.75573,0.356 1.41697,0.8294 1.91413,1.3981 0.79723,0.8851 1.60465,1.7657 2.60172,2.4323 0.65702,0.5133 1.31104,0.972 2.15663,1.109 0.78975,0.1769 1.58607,0.3175 2.35602,0.5748 0.68266,0.095 1.36289,0.1033 2.03104,-0.096 0.28792,-0.077 0.66346,-0.1679 0.94421,-0.2759 0.57942,-0.223 1.06773,-0.6151 1.6003,-0.924 0.60003,-0.3584 1.19347,-0.7514 1.8575,-0.9819 0.90516,-0.262 1.70256,-0.7741 2.52009,-1.2289 1.1385,-0.6382 2.2683,-1.2912 3.2756,-2.1287 0.81009,-0.5953 1.64482,-1.1498 2.47811,-1.7106 0.68943,-0.5476 1.37679,-1.0999 2.12916,-1.561 0.70285,-0.4748 1.41789,-0.9345 2.15111,-1.3607 0.70334,-0.3248 1.46583,-0.517 2.07153,-1.0272 0.66195,-0.4649 1.34725,-0.8578 2.15264,-1.0108 0.68348,-0.236 1.34057,-0.5622 2.08478,-0.5309 0.74104,-0.01 1.4667,0.085 2.20279,0.1545 0.933,0.026 1.87234,-0.062 2.79915,0.08 0.85416,0.1979 1.70575,0.4227 2.51972,0.7525 0.98328,0.4126 1.93157,0.9051 2.95232,1.2262 1.18189,0.536 2.24601,1.2736 3.35378,1.9437 0.21128,0.1427 0.445,0.2601 0.6256,0.44 0.45194,0.4504 0.79968,0.9981 1.08532,1.5647 0.4275,0.9877 0.59773,1.7758 1.52012,2.4535 0.50189,0.3847 1.03107,0.7245 1.54459,1.0925 0.51469,0.4093 1.0412,0.8049 1.53475,1.2394 0.62406,0.5923 1.21806,1.1615 2.12023,1.2644 1.12705,0.2622 2.07331,0.7985 2.97436,1.5189 0.17643,0.1367 0.67247,0.5264 0.85743,0.6488 0.55171,0.3653 1.17953,0.5306 1.81668,0.6786 1.03817,0.2609 1.85153,0.5368 2.65558,1.2846 0.63412,0.5295 1.24715,1.0695 1.81756,1.6691 0.29165,0.2146 0.60014,0.3901 0.90263,0.5885 0.51463,0.3374 0.11265,0.088 0.59891,0.4498 0.10865,0.081 0.22319,0.1534 0.33478,0.2302 0.99153,0.4112 2.08717,0.4746 3.11304,0.7807 0.94429,0.2341 1.8873,0.4745 2.85707,0.578 0.16392,-0.2753 0.21578,0.3226 0.42455,0.3428 0.12546,0.012 0.25505,-0.016 0.37338,-0.06 0.50042,-0.1836 1.41512,-0.7244 1.81167,-0.9452 0,0 -0.12846,-0.1346 -0.12846,-0.1346 z" />
  </g>
</svg>
